<svg role="img" aria-hidden="true" xmlns="http://www.w3.org/2000/svg" viewBox="0 0 256 256" focusable="false"><g style="isolation:isolate"><path fill="#084a67" d="M41 0h174a41 41 0 0141 41v215H41a41 41 0 01-41-41V41A41 41 0 0141 0z"/><path fill="#c7c9c9" d="M202.41 54.36l-30.66-21.47-11 13.4a87.3 87.3 0 00-27.84-6.16l-4.33-16.82-36.87 6.5 1.65 17.29a87.08 87.08 0 00-24 15.31l-15-8.82-21.47 30.66 13.4 11a87.3 87.3 0 00-6.16 27.84l-16.82 4.33 6.5 36.87 17.29-1.68a87.08 87.08 0 0015.31 24.05l-8.82 14.95 30.66 21.47 11-13.4a87.3 87.3 0 0027.84 6.16l4.33 16.82 36.87-6.5-1.68-17.29a87.08 87.08 0 0024.05-15.31l14.95 8.82 21.47-30.66-13.4-11a87.3 87.3 0 006.16-27.84l16.82-4.33-6.5-36.87-17.26 1.68a87.08 87.08 0 00-15.31-24zm-22.77 109.8a63 63 0 11-15.48-87.8 63 63 0 0115.48 87.8z"/><path fill="#fff" d="M117.31 256l-3.6-115.11H92.44L88.84 256h28.47z"/><path fill="#a4286a" d="M123.68 256l-4.92-90.57H87.39L82.47 256h41.21z"/><path fill="#fff" d="M151.8 125.8l3.59 9.24V256h11.37V135.04l3.58-9.24-3.07-26.42h-12.39l-3.08 26.42z"/><path fill="#a4286a" d="M140.94 223.59h3.31l-5.12 17.22V256h43.89v-15.19l-5.12-17.22h3.31v-8.6h-40.27v8.6z"/><path fill="#fff" d="M117.52 134.35L103.79 139l-15.16-4.61v-33.52a30.09 30.09 0 1028.89 0z"/><path fill="#a4286a" d="M110.74 178.05H108l-4.18 11.64-2.06-6.45h-2.51l3.15 8.08a3.23 3.23 0 010 2.33 2.9 2.9 0 01-2.36 2H100v2.15h.08a4.33 4.33 0 003.07-1.31 11.1 11.1 0 002.29-4.18z" style="mix-blend-mode:multiply"/></g></svg>